<svg width="50" height="50" viewBox="0 0 50 50" fill="none" xmlns="http://www.w3.org/2000/svg">
<path d="M16.6667 10.4167C16.1142 10.4167 15.5842 10.6362 15.1935 11.0269C14.8028 11.4176 14.5834 11.9475 14.5834 12.5C14.5834 13.0525 14.8028 13.5824 15.1935 13.9731C15.5842 14.3638 16.1142 14.5833 16.6667 14.5833C17.2192 14.5833 17.7491 14.3638 18.1398 13.9731C18.5305 13.5824 18.75 13.0525 18.75 12.5C18.75 11.9475 18.5305 11.4176 18.1398 11.0269C17.7491 10.6362 17.2192 10.4167 16.6667 10.4167ZM10.4167 12.5C10.4167 10.8424 11.0752 9.25269 12.2473 8.08058C13.4194 6.90848 15.0091 6.25 16.6667 6.25C18.3243 6.25 19.914 6.90848 21.0861 8.08058C22.2582 9.25269 22.9167 10.8424 22.9167 12.5C22.9167 14.1576 22.2582 15.7473 21.0861 16.9194C19.914 18.0915 18.3243 18.75 16.6667 18.75C15.0091 18.75 13.4194 18.0915 12.2473 16.9194C11.0752 15.7473 10.4167 14.1576 10.4167 12.5ZM33.3334 22.9167C32.7808 22.9167 32.2509 23.1362 31.8602 23.5269C31.4695 23.9176 31.25 24.4475 31.25 25C31.25 25.5525 31.4695 26.0824 31.8602 26.4731C32.2509 26.8638 32.7808 27.0833 33.3334 27.0833C33.8859 27.0833 34.4158 26.8638 34.8065 26.4731C35.1972 26.0824 35.4167 25.5525 35.4167 25C35.4167 24.4475 35.1972 23.9176 34.8065 23.5269C34.4158 23.1362 33.8859 22.9167 33.3334 22.9167ZM27.0834 25C27.0834 23.3424 27.7418 21.7527 28.9139 20.5806C30.086 19.4085 31.6758 18.75 33.3334 18.75C34.991 18.75 36.5807 19.4085 37.7528 20.5806C38.9249 21.7527 39.5834 23.3424 39.5834 25C39.5834 26.6576 38.9249 28.2473 37.7528 29.4194C36.5807 30.5915 34.991 31.25 33.3334 31.25C31.6758 31.25 30.086 30.5915 28.9139 29.4194C27.7418 28.2473 27.0834 26.6576 27.0834 25ZM16.6667 35.4167C16.1142 35.4167 15.5842 35.6362 15.1935 36.0269C14.8028 36.4176 14.5834 36.9475 14.5834 37.5C14.5834 38.0525 14.8028 38.5824 15.1935 38.9731C15.5842 39.3638 16.1142 39.5833 16.6667 39.5833C17.2192 39.5833 17.7491 39.3638 18.1398 38.9731C18.5305 38.5824 18.75 38.0525 18.75 37.5C18.75 36.9475 18.5305 36.4176 18.1398 36.0269C17.7491 35.6362 17.2192 35.4167 16.6667 35.4167ZM10.4167 37.5C10.4167 35.8424 11.0752 34.2527 12.2473 33.0806C13.4194 31.9085 15.0091 31.25 16.6667 31.25C18.3243 31.25 19.914 31.9085 21.0861 33.0806C22.2582 34.2527 22.9167 35.8424 22.9167 37.5C22.9167 39.1576 22.2582 40.7473 21.0861 41.9194C19.914 43.0915 18.3243 43.75 16.6667 43.75C15.0091 43.75 13.4194 43.0915 12.2473 41.9194C11.0752 40.7473 10.4167 39.1576 10.4167 37.5Z" fill="currentColor"/>
<path d="M6.25 12.5C6.25 11.9475 6.46949 11.4176 6.86019 11.0269C7.25089 10.6362 7.7808 10.4167 8.33333 10.4167H12.5C13.0525 10.4167 13.5824 10.6362 13.9731 11.0269C14.3638 11.4176 14.5833 11.9475 14.5833 12.5C14.5833 13.0525 14.3638 13.5824 13.9731 13.9731C13.5824 14.3638 13.0525 14.5833 12.5 14.5833H8.33333C7.7808 14.5833 7.25089 14.3638 6.86019 13.9731C6.46949 13.5824 6.25 13.0525 6.25 12.5ZM18.75 12.5C18.75 11.9475 18.9695 11.4176 19.3602 11.0269C19.7509 10.6362 20.2808 10.4167 20.8333 10.4167H41.6667C42.2192 10.4167 42.7491 10.6362 43.1398 11.0269C43.5305 11.4176 43.75 11.9475 43.75 12.5C43.75 13.0525 43.5305 13.5824 43.1398 13.9731C42.7491 14.3638 42.2192 14.5833 41.6667 14.5833H20.8333C20.2808 14.5833 19.7509 14.3638 19.3602 13.9731C18.9695 13.5824 18.75 13.0525 18.75 12.5ZM6.25 25C6.25 24.4475 6.46949 23.9176 6.86019 23.5269C7.25089 23.1362 7.7808 22.9167 8.33333 22.9167H29.1667C29.7192 22.9167 30.2491 23.1362 30.6398 23.5269C31.0305 23.9176 31.25 24.4475 31.25 25C31.25 25.5525 31.0305 26.0824 30.6398 26.4731C30.2491 26.8638 29.7192 27.0833 29.1667 27.0833H8.33333C7.7808 27.0833 7.25089 26.8638 6.86019 26.4731C6.46949 26.0824 6.25 25.5525 6.25 25ZM35.4167 25C35.4167 24.4475 35.6362 23.9176 36.0269 23.5269C36.4176 23.1362 36.9475 22.9167 37.5 22.9167H41.6667C42.2192 22.9167 42.7491 23.1362 43.1398 23.5269C43.5305 23.9176 43.75 24.4475 43.75 25C43.75 25.5525 43.5305 26.0824 43.1398 26.4731C42.7491 26.8638 42.2192 27.0833 41.6667 27.0833H37.5C36.9475 27.0833 36.4176 26.8638 36.0269 26.4731C35.6362 26.0824 35.4167 25.5525 35.4167 25ZM6.25 37.5C6.25 36.9475 6.46949 36.4176 6.86019 36.0269C7.25089 35.6362 7.7808 35.4167 8.33333 35.4167H12.5C13.0525 35.4167 13.5824 35.6362 13.9731 36.0269C14.3638 36.4176 14.5833 36.9475 14.5833 37.5C14.5833 38.0525 14.3638 38.5824 13.9731 38.9731C13.5824 39.3638 13.0525 39.5833 12.5 39.5833H8.33333C7.7808 39.5833 7.25089 39.3638 6.86019 38.9731C6.46949 38.5824 6.25 38.0525 6.25 37.5ZM18.75 37.5C18.75 36.9475 18.9695 36.4176 19.3602 36.0269C19.7509 35.6362 20.2808 35.4167 20.8333 35.4167H41.6667C42.2192 35.4167 42.7491 35.6362 43.1398 36.0269C43.5305 36.4176 43.75 36.9475 43.75 37.5C43.75 38.0525 43.5305 38.5824 43.1398 38.9731C42.7491 39.3638 42.2192 39.5833 41.6667 39.5833H20.8333C20.2808 39.5833 19.7509 39.3638 19.3602 38.9731C18.9695 38.5824 18.75 38.0525 18.75 37.5Z" fill="currentColor"/>
</svg>
