<?xml version="1.0" encoding="utf-8"?>
<!-- Generator: Adobe Illustrator 25.3.1, SVG Export Plug-In . SVG Version: 6.00 Build 0)  -->
<svg version="1.1" id="Layer_1" xmlns="http://www.w3.org/2000/svg" xmlns:xlink="http://www.w3.org/1999/xlink" x="0px" y="0px"
	 viewBox="0 0 45 45" style="enable-background:new 0 0 45 45;" xml:space="preserve" fill="currentColor">
<g>
	<g>
		<path d="M44.7,25.5l-3-12.1c-0.1-1.8-1.5-3.4-3.3-3.8C37.3,9.3,36,9.5,35,10.3c-1,0.7-1.7,1.9-1.8,3.1l0,0.3l-3.7-5
			c-1.5-2.1-3.6-3-5.7-2.7c-2.7,0.4-5.4,2.8-6.5,6c-0.4,1-0.6,2.1-0.8,3.3c-1.2-0.5-2.5-0.6-3.8-0.2c-2.6,0.8-4.9,3.6-5.5,6.9
			C6.2,26.5,7.6,32,10.7,36.6c3,4.4,7.4,7.4,11.9,8.2c0.8,0.1,1.6,0.2,2.4,0.2c3.5,0,6.9-1.4,9.4-3.9c1.1-1.1,1.9-2.4,2.3-3.9
			c1.6-0.4,3.2-1.1,4.6-2.1C44.2,32.9,45.6,29.1,44.7,25.5z M39.4,32.5c-0.7,0.5-1.5,0.9-2.4,1.3c-0.1-0.9-0.3-1.8-0.7-2.6
			l-4.8-11.5c-0.4-1.8-2-3.1-3.8-3.3c-1.3-0.1-2.5,0.3-3.4,1.2c-0.9,0.9-1.4,2.1-1.3,3.4l0,0.3l-3.7-3.7c0-1.6,0.3-3.1,0.8-4.5
			c0.7-2,2.4-3.7,4-3.9c0.1,0,0.2,0,0.3,0c0.9,0,1.7,0.5,2.4,1.5l6.2,8.4c0.4,0.5,1.1,0.8,1.7,0.6c0.6-0.2,1.1-0.7,1.1-1.4l0.4-4.5
			c0-0.5,0.3-0.7,0.5-0.8c0.2-0.1,0.5-0.3,0.9-0.2c0.5,0.1,0.8,0.6,0.9,1.1c0,0.1,0,0.2,0,0.3l3,12.3C42.2,28.6,41.4,31.1,39.4,32.5
			z M32.2,38.9c-2.3,2.3-5.8,3.4-9,2.8c-3.7-0.7-7.3-3.2-9.9-6.9c-2.6-3.9-3.8-8.5-3-12.3c0.4-2.1,1.9-4,3.4-4.5
			c0.2-0.1,0.5-0.1,0.7-0.1c0.7,0,1.5,0.4,2.3,1.1l7.4,7.4c0.5,0.5,1.2,0.6,1.8,0.3c0.6-0.3,1-0.9,0.9-1.5l-0.3-4.5
			c0-0.5,0.2-0.8,0.3-0.9c0.1-0.1,0.4-0.4,0.9-0.3c0.5,0,0.9,0.4,1,0.9c0,0.1,0.1,0.2,0.1,0.3l4.8,11.7
			C34.4,34.6,33.9,37.2,32.2,38.9z"/>
		<path d="M2.6,9.9C2,9.3,1,9.4,0.4,10c-0.6,0.6-0.5,1.6,0.1,2.2l3.3,2.9c0.3,0.3,0.7,0.4,1,0.4c0.4,0,0.9-0.2,1.2-0.5
			c0.6-0.6,0.5-1.6-0.1-2.2L2.6,9.9z"/>
		<path d="M8.7,10.2c0.3,0.4,0.8,0.6,1.2,0.6c0.3,0,0.7-0.1,1-0.3c0.7-0.5,0.8-1.5,0.3-2.2L8.5,4.8C7.9,4.1,6.9,4,6.2,4.6
			C5.6,5.1,5.4,6.1,6,6.8L8.7,10.2z"/>
		<path d="M14.4,6.2C14.7,6.7,15.2,7,15.8,7c0.3,0,0.5-0.1,0.8-0.2c0.8-0.4,1.1-1.4,0.6-2.1l-2.1-3.9c-0.4-0.8-1.4-1-2.1-0.6
			c-0.8,0.4-1.1,1.4-0.6,2.1L14.4,6.2z"/>
	</g>
</g>
</svg>
