<?xml version="1.0" encoding="utf-8"?>
<!-- Generator: Adobe Illustrator 25.3.1, SVG Export Plug-In . SVG Version: 6.00 Build 0)  -->
<svg version="1.1" id="Layer_1" xmlns="http://www.w3.org/2000/svg" xmlns:xlink="http://www.w3.org/1999/xlink" x="0px" y="0px"
	 viewBox="0 0 45 45" style="enable-background:new 0 0 45 45;" xml:space="preserve" fill="currentColor">
<style type="text/css">
	.st0{clip-path:url(#SVGID_2_);}
</style>
<g>
	<defs>
		<rect id="SVGID_1_" y="5.1" width="45" height="34.9"/>
	</defs>
	<clipPath id="SVGID_2_">
		<use xlink:href="#SVGID_1_"  style="overflow:visible;"/>
	</clipPath>
	<g class="st0">
		<path d="M28.3,14.7c-1.1-0.6-2.5-1.1-4-1.4V6.8c0-1-0.8-1.8-1.8-1.8s-1.8,0.8-1.8,1.8v6.5c-1.6,0.2-3.1,0.8-4.3,1.4
			C7.7,15.7,0,18.9,0,24.1c0,1.1,0.4,2.1,1,3.1c-0.6,0.9-1,1.9-1,3.1c0,6.3,11.6,9.7,22.5,9.7S45,36.5,45,30.2c0-1.1-0.4-2.1-1-3.1
			c0.6-0.9,1-1.9,1-3.1C45,18.9,37.1,15.7,28.3,14.7z M41.4,30.2c0,2.5-7.4,6.2-18.9,6.2S3.6,32.7,3.6,30.2c0-0.2,0-0.4,0.1-0.6
			c4.3,2.8,11.7,4.2,18.8,4.2s14.5-1.5,18.8-4.2C41.4,29.8,41.4,30,41.4,30.2z M3.6,24.1c0-1.6,3-3.7,8.1-5
			c-0.5,0.8-0.2,1.9,0.6,2.4c0.8,0.5,1.9,0.2,2.4-0.6c0.1-0.2,2.1-3.4,6.1-4.1c0.3,0.6,0.9,1.1,1.6,1.1c0.7,0,1.3-0.4,1.6-1
			c3.8,0.8,5.8,3.9,5.9,4.1c0.3,0.6,0.9,0.9,1.5,0.9c0.3,0,0.6-0.1,0.9-0.2c0.8-0.5,1.1-1.6,0.6-2.4c0,0,0,0,0-0.1
			c5.3,1.3,8.4,3.4,8.4,5c0,2.5-7.4,6.2-18.9,6.2C10.9,30.3,3.6,26.6,3.6,24.1z"/>
	</g>
</g>
</svg>
