<?xml version="1.0" encoding="utf-8"?>
<!-- Generator: Adobe Illustrator 25.3.1, SVG Export Plug-In . SVG Version: 6.00 Build 0)  -->
<svg version="1.1" id="Layer_1" xmlns="http://www.w3.org/2000/svg" xmlns:xlink="http://www.w3.org/1999/xlink" x="0px" y="0px"
	 viewBox="0 0 45 45" style="enable-background:new 0 0 45 45;" xml:space="preserve" fill="currentColor">
<g>
	<g>
		<path d="M43.1,24.3c1.1-1.1,1.7-2.3,1.7-3.7c0-5-7.9-9.4-17.8-10.5c0,0.6,0,1.3,0,1.9c0,0.6,0,1.2-0.1,1.9
			c8.7,1,14.1,4.9,14.1,6.6c0,0.5-0.4,1-1.2,1.6c-0.5,0.4-1.2,0.8-2.1,1.2c-0.8,0.4-1.8,0.7-2.9,1c-2.4,0.7-5.6,1.3-9.4,1.5
			c-0.9,0-1.8,0.1-2.8,0.1c-0.7,0-1.4,0-2.1,0c-4.2-0.2-7.7-0.8-10.3-1.5c-1.1-0.3-2.1-0.7-2.9-1.1c-0.9-0.4-1.5-0.8-2.1-1.2
			c-0.7-0.5-1.1-1.1-1.1-1.5c0-1.6,4.2-4.7,11.2-6.2c-0.6-0.5-1.1-1.1-1.6-1.6c-0.5-0.6-1-1.1-1.4-1.6c-7,1.8-12,5.4-12,9.4
			c0,1.3,0.5,2.5,1.5,3.6C0.7,25.3,0,26.6,0,28.2c0,4,5.1,6.8,11.8,8.1c0.4,0.1,0.7,0.1,1.1,0.2c0.4,0.1,0.8,0.1,1.1,0.2
			c-0.4,1.1-0.6,2.3-0.3,3.4c0.6,2.2,2.7,3.6,5,3.6c0.4,0,0.8,0,1.2-0.1c1.2-0.3,4.1-1.4,5.1-6.3c0.4,0,0.8,0,1.2-0.1
			c0.4,0,0.8-0.1,1.2-0.1c9.3-0.8,17.6-3.8,17.6-9C45,26.7,44.3,25.4,43.1,24.3z M26.5,33.3c-0.4,0-0.8,0-1.1,0.1
			c-0.9,0-1.9,0.1-2.9,0.1c-0.3,0-0.6,0-0.9,0c-0.2,0-0.3,0-0.5,0c-1.7,0-3.4-0.2-4.9-0.3c-0.4-0.1-0.9-0.1-1.3-0.2
			c-0.4-0.1-0.9-0.1-1.3-0.2c-6.4-1.1-9.8-3.3-9.8-4.6c0-0.5,0.5-1.1,1.5-1.8c2.9,1.5,6.9,2.5,11.2,2.9c0.5,0.1,1,0.1,1.5,0.1
			c0.5,0,1.1,0.1,1.6,0.1c1,0.1,2,0.1,3.1,0.1c0.8,0,1.6,0,2.4-0.1c0.4,0,0.8,0,1.1-0.1c0.4,0,0.8-0.1,1.1-0.1
			c4.8-0.4,9.3-1.4,12.6-3c0.9,0.6,1.3,1.2,1.3,1.7c0,1.5-4.7,4.3-13.5,5.1C27.3,33.3,26.9,33.3,26.5,33.3z M19.1,39.8
			c-0.1,0-0.2,0-0.2,0c0,0-0.1,0-0.1,0c-0.6,0-1.2-0.4-1.3-0.8c-0.1-0.4,0.1-1.1,0.6-1.9c1,0.1,2.1,0.1,3.1,0.2
			C20.7,38.9,19.8,39.7,19.1,39.8z"/>
		<path d="M16.6,12.2c0.6,0.6,1.3,1.2,1.9,1.7c1.3,1,2.4,1.8,3.1,2.3c0.3,0.2,0.7,0.3,1,0.3c0.3,0,0.6-0.1,0.8-0.2
			c0.6-0.3,1-0.9,1.1-1.5c0-0.4,0.1-0.7,0.1-1.1c0-0.7,0.1-1.3,0.1-1.9c0-0.7,0-1.3-0.1-1.9c-0.5-7.8-4.7-9.1-6.1-9.3
			c-0.3,0-0.5-0.1-0.8-0.1c-2.4,0-4.7,1.7-5.1,4c-0.4,2,0.7,4.1,2.4,6C15.5,11.1,16,11.7,16.6,12.2z M17.8,4.3c0.1,0,0.2,0,0.2,0
			c1,0.2,2.5,1.6,2.9,5.6c0,0.3,0.1,0.7,0.1,1c-0.4-0.3-0.8-0.6-1.1-1c-2.1-1.9-3.6-3.8-3.4-4.7C16.5,4.8,17.1,4.3,17.8,4.3z"/>
	</g>
</g>
</svg>
