<svg width="45" height="45" viewBox="0 0 45 45" fill="none" xmlns="http://www.w3.org/2000/svg">
  <g clip-path="url(#clip0)">
    <path class="body"
      d="M35.2731 15.9231C35.0862 16.2138 34.4077 16.8992 32.8223 17.6538C32.3238 17.8892 31.7354 18.1315 31.0431 18.3738C29.8662 18.7823 28.5577 19.1215 27.1523 19.3846C24.7638 19.8346 22.1123 20.0769 19.3846 20.0769C16.6569 20.0769 13.9985 19.8346 11.6169 19.3846C10.2185 19.1215 8.90308 18.7823 7.72615 18.3738C7.03385 18.1315 6.44538 17.8892 5.94692 17.6538C4.36154 16.8992 3.68308 16.2138 3.49615 15.9231C3.74538 15.5423 4.83231 14.4692 7.72615 13.4723C8.55692 13.1815 9.44308 12.9323 10.3915 12.7177C10.3915 12.4338 10.44 12.1431 10.5162 11.8523C10.5369 11.7831 10.5438 11.7138 10.5646 11.6515C10.6615 11.3608 10.7862 11.0838 10.9385 10.8346C11.2985 10.2392 11.8108 9.75461 12.4477 9.4223L14.0331 8.60538C5.93308 9.5123 0 12.4477 0 15.9231L0 37.3846C0 41.5938 8.68154 45 19.3846 45C30.0877 45 38.7692 41.5938 38.7692 37.3846L38.7692 15.9231C38.7692 14.6146 37.9315 13.3823 36.45 12.3023L34.6777 13.2231L34.2761 13.4308L32.8154 14.1854C34.4077 14.94 35.0862 15.6323 35.2731 15.9231ZM35.3077 37.3154C35.1623 37.6269 34.1308 38.7692 31.0431 39.8354C30.6346 39.9738 30.2054 40.1054 29.7692 40.23L29.7692 22.3546C31.95 21.8077 33.8331 21.1015 35.3077 20.2708L35.3077 37.3154ZM12.4615 23.04C14.0954 23.2892 15.84 23.4485 17.6538 23.5108L17.6538 41.5108C15.8469 41.4415 14.1023 41.2685 12.4615 40.9985L12.4615 23.04ZM3.46154 20.2638C4.93615 21.0946 6.81923 21.8077 9 22.3477L9 40.23C8.56385 40.1054 8.13461 39.9738 7.72615 39.8354C4.63846 38.7692 3.60692 37.6269 3.46154 37.3154L3.46154 20.2638ZM21.1154 41.5038L21.1154 23.5038C22.9292 23.4415 24.6738 23.2823 26.3077 23.0331L26.3077 40.9846C24.6669 41.2615 22.9223 41.4346 21.1154 41.5038Z"
      fill="currentColor" />
    <path class="body"
      d="M12.6554 13.6038C12.9601 14.1992 13.5693 14.5385 14.1924 14.5385C14.4624 14.5385 14.7324 14.4762 14.9885 14.3446L19.9662 11.7762L21.2816 11.0977L23.0608 10.1769L25.8439 8.74385L36.4501 3.26769C37.2947 2.83154 37.627 1.78615 37.1908 0.934615C36.8862 0.339231 36.277 0 35.6539 0C35.3839 0 35.1139 0.0623077 34.8577 0.193846L19.1354 8.30769L15.4801 10.1977L13.3962 11.2708C13.2924 11.3262 13.1954 11.3885 13.1054 11.4577C12.8285 11.6792 12.6347 11.9769 12.5447 12.3023C12.4131 12.7177 12.4408 13.1885 12.6554 13.6038Z"
      fill="currentColor" />
    <path class="body"
      d="M44.8061 3.70384C44.5015 3.10846 43.8923 2.76923 43.2692 2.76923C42.9992 2.76923 42.7292 2.83153 42.473 2.96307L29.8038 9.50538L27.3876 10.7446L26.0653 11.43L24.7776 12.0946L21.0115 14.04C20.3123 14.4 19.973 15.1823 20.1184 15.9231C20.1461 16.0754 20.1946 16.2277 20.2707 16.3731C20.5753 16.9685 21.1846 17.3077 21.8076 17.3077C22.0776 17.3077 22.3476 17.2454 22.6038 17.1138L24.9161 15.9231L30.1915 13.2023L31.6107 12.4685L32.3099 12.1015L34.3246 11.0631L44.0653 6.03692C44.91 5.60076 45.2423 4.55538 44.8061 3.70384Z"
      fill="currentColor" />
  </g>
  <defs>
    <clipPath id="clip0">
      <rect width="45" height="45" fill="none" />
    </clipPath>
  </defs>
</svg>