<svg width="45" height="45" viewBox="0 0 45 45" fill="none" xmlns="http://www.w3.org/2000/svg">
<g clip-path="url(#clip0)">
<path d="M42.8458 28.8847V15.6203C44.2025 14.2361 45 12.6319 45 10.8077C45 3.7859 33.404 0 22.4954 0C11.5869 0 0 3.7859 0 10.7985C0 12.6227 0.797515 14.2361 2.15421 15.6111V28.8755C0.797515 30.2597 0 31.8731 0 33.6973C0 40.7099 11.596 44.4958 22.4954 44.4958C33.3948 44.4958 44.9908 40.7099 44.9908 33.6973C45 31.8639 44.2025 30.2597 42.8458 28.8847ZM40.4166 10.7985C40.4166 13.3286 33.4406 17.0136 22.5046 17.0136C11.5685 17.0136 4.58342 13.3377 4.58342 10.7985C4.58342 8.25932 11.5594 4.58342 22.4954 4.58342C33.4315 4.58342 40.4166 8.26849 40.4166 10.7985ZM9.13017 19.5712V20.8637V24.0813C9.13017 24.8421 9.74435 25.4563 10.5052 25.4563C11.266 25.4563 11.8802 24.8421 11.8802 24.0813V20.8637V20.3687C12.6411 20.552 13.4111 20.717 14.1994 20.8637C16.3628 21.2579 18.6362 21.4962 20.9004 21.5696V26.0521C20.9004 26.813 21.5146 27.4272 22.2754 27.4272C23.0363 27.4272 23.6504 26.813 23.6504 26.0521V21.5879C26.0613 21.5329 28.4905 21.2854 30.8006 20.8637C31.4331 20.7446 32.0656 20.6162 32.6798 20.4787V20.8637V24.0813C32.6798 24.8421 33.294 25.4563 34.0548 25.4563C34.8156 25.4563 35.4298 24.8421 35.4298 24.0813V20.8637V19.727C37.1624 19.177 38.739 18.4987 40.1049 17.7103V20.8729V34.6965C39.4541 35.7415 37.8407 36.869 35.4298 37.8132V33.4956C35.4298 32.7348 34.8156 32.1206 34.0548 32.1206C33.294 32.1206 32.6798 32.7348 32.6798 33.4956V38.6932C30.1772 39.3532 27.1338 39.8116 23.6596 39.8941V35.4573C23.6596 34.6965 23.0454 34.0823 22.2846 34.0823C21.5237 34.0823 20.9096 34.6965 20.9096 35.4573V39.8849C17.417 39.7657 14.3644 39.2707 11.8894 38.574V33.4956C11.8894 32.7348 11.2752 32.1206 10.5144 32.1206C9.75351 32.1206 9.13934 32.7348 9.13934 33.4956V37.6299C6.97596 36.7315 5.51844 35.6773 4.91342 34.6965V20.8637V17.7012C6.14178 18.4253 7.57181 19.0487 9.13017 19.5712Z" fill="currentColor"/>
</g>
<defs>
<clipPath id="clip0">
<rect width="45" height="44.4958" fill="white"/>
</clipPath>
</defs>
</svg>
