<?xml version="1.0" encoding="utf-8"?>
<!-- Generator: Adobe Illustrator 25.3.1, SVG Export Plug-In . SVG Version: 6.00 Build 0)  -->
<svg version="1.1" id="Layer_1" xmlns="http://www.w3.org/2000/svg" xmlns:xlink="http://www.w3.org/1999/xlink" x="0px" y="0px"
	 viewBox="0 0 45 45" style="enable-background:new 0 0 45 45;" xml:space="preserve" fill="currentColor">
<style type="text/css">
	.st0{clip-path:url(#SVGID_2_);}
	.st1{fill:#FFFFFF;}
</style>
<g>
	<defs>
		<rect id="SVGID_1_" x="2.3" y="0.7" width="40.5" height="43.6"/>
	</defs>
	<clipPath id="SVGID_2_">
		<use xlink:href="#SVGID_1_"  style="overflow:visible;"/>
	</clipPath>
	<g class="st0">
		<path d="M36.2,35.8c4-3.7,6.5-9,6.5-14.9c0-11.2-9.1-20.2-20.2-20.2C11.3,0.7,2.3,9.8,2.3,20.9c0,5.9,2.5,11.2,6.5,14.9L6.7,42
			c-0.3,0.9,0.2,1.9,1.1,2.2c0.2,0.1,0.4,0.1,0.5,0.1c0.7,0,1.4-0.5,1.6-1.2l1.7-5.1c1.8,1.1,3.8,2,5.9,2.5v0.2c0,2,1.6,3.6,3.6,3.6
			h2.7c2,0,3.6-1.6,3.6-3.6v-0.2c2.1-0.5,4.1-1.4,5.9-2.5l1.7,5.1c0.2,0.7,0.9,1.2,1.6,1.2c0.2,0,0.4,0,0.5-0.1
			c0.9-0.3,1.4-1.3,1.1-2.2L36.2,35.8z M23.9,40.9h-2.7c-0.1,0-0.1-0.1-0.1-0.1v-9.3c0-0.1,0.1-0.1,0.1-0.1h2.7
			c0.1,0,0.1,0.1,0.1,0.1v9.3C24,40.8,23.9,40.9,23.9,40.9z M21.1,17.3c0-0.8,0.6-1.4,1.4-1.4c0.8,0,1.4,0.6,1.4,1.4
			c0,0.8-0.6,1.4-1.4,1.4C21.7,18.7,21.1,18.1,21.1,17.3z M24.2,27.9v-6c1.8-0.7,3.1-2.5,3.1-4.5c0-2.7-2.2-4.8-4.8-4.8
			c-2.7,0-4.8,2.2-4.8,4.8c0,2.1,1.3,3.8,3.1,4.5v6c-1.8,0.2-3.2,1.7-3.2,3.5V37c-6.9-2.1-11.9-8.5-11.9-16.1
			c0-9.3,7.5-16.8,16.8-16.8c9.3,0,16.8,7.5,16.8,16.8c0,7.6-5,14-11.9,16.1v-5.6C27.4,29.6,26,28.1,24.2,27.9z"/>
		<path class="st1" d="M22.5,18.7c0.8,0,1.4-0.6,1.4-1.4c0-0.8-0.6-1.4-1.4-1.4c-0.8,0-1.4,0.6-1.4,1.4
			C21.1,18.1,21.7,18.7,22.5,18.7z"/>
	</g>
</g>
</svg>
