<?xml version="1.0" encoding="utf-8"?>
<!-- Generator: Adobe Illustrator 25.3.1, SVG Export Plug-In . SVG Version: 6.00 Build 0)  -->
<svg version="1.1" id="Layer_1" xmlns="http://www.w3.org/2000/svg" xmlns:xlink="http://www.w3.org/1999/xlink" x="0px" y="0px"
	 viewBox="0 0 45 45" style="enable-background:new 0 0 45 45;" xml:space="preserve" fill="currentColor">
<style type="text/css">
	.st0{clip-path:url(#SVGID_2_);}
</style>
<g>
	<defs>
		<rect id="SVGID_1_" x="9" y="0.1" width="27" height="44.9"/>
	</defs>
	<clipPath id="SVGID_2_">
		<use xlink:href="#SVGID_1_"  style="overflow:visible;"/>
	</clipPath>
	<g class="st0">
		<path d="M34.6,31.4V9.8c0.9-1,1.4-2,1.4-3.1c0-3.3-4.6-6.7-13.5-6.7C13.6,0.1,9,3.4,9,6.7c0,1.1,0.5,2.1,1.4,3.1v21.6
			c-0.9,1-1.4,2-1.4,3.1c0,1.1,0.5,2.1,1.4,3.1v4c0,0.6,0.5,1,1,1c0.6,0,1-0.5,1-1V39c2.1,1.1,5.1,1.9,8.9,2.1v2.8c0,0.6,0.5,1,1,1
			c0.6,0,1-0.5,1-1v-2.8c3.8-0.1,6.8-0.9,8.9-2v2.4c0,0.6,0.5,1,1,1s1-0.5,1-1v-3.8c1.1-1,1.6-2.1,1.6-3.3
			C36,33.4,35.5,32.3,34.6,31.4z M32.6,6.7c0,1.2-3.8,3.3-10.1,3.3c-6.3,0-10.1-2.1-10.1-3.3c0-1.2,3.8-3.3,10.1-3.3
			C28.8,3.5,32.6,5.6,32.6,6.7z M14.5,12.2v2.3c0,0.6,0.5,1,1,1c0.6,0,1-0.5,1-1v-1.7c1.4,0.3,3,0.5,4.8,0.6v2.3c0,0.6,0.5,1,1,1
			c0.6,0,1-0.5,1-1v-2.3c1.8,0,3.4-0.2,4.8-0.5v1.6c0,0.6,0.5,1,1,1s1-0.5,1-1v-2.2c0.9-0.3,1.6-0.6,2.3-1v10.3v13
			c-0.2,0.5-1,1.1-2.3,1.7v-2c0-0.6-0.5-1-1-1s-1,0.5-1,1V37c-1.3,0.3-3,0.6-4.8,0.7v-2.2c0-0.6-0.5-1-1-1c-0.6,0-1,0.5-1,1v2.2
			c-1.9-0.1-3.5-0.4-4.8-0.7v-2.6c0-0.6-0.5-1-1-1c-0.6,0-1,0.5-1,1v1.9c-1.2-0.5-1.9-1.1-2-1.6v-13V11.3
			C13,11.6,13.7,11.9,14.5,12.2z"/>
	</g>
</g>
</svg>
