<?xml version="1.0" encoding="utf-8"?>
<!-- Generator: Adobe Illustrator 25.3.1, SVG Export Plug-In . SVG Version: 6.00 Build 0)  -->
<svg version="1.1" id="Layer_1" xmlns="http://www.w3.org/2000/svg" xmlns:xlink="http://www.w3.org/1999/xlink" x="0px" y="0px"
	 viewBox="0 0 45 45" style="enable-background:new 0 0 45 45;" xml:space="preserve" fill="currentColor">
<style type="text/css">
	.st0{clip-path:url(#SVGID_2_);}
</style>
<g>
	<defs>
		<rect id="SVGID_1_" y="2" width="45" height="40.3"/>
	</defs>
	<clipPath id="SVGID_2_">
		<use xlink:href="#SVGID_1_"  style="overflow:visible;"/>
	</clipPath>
	<g class="st0">
		<path d="M45,21.1c0-5.2-7.9-8.5-16.7-9.4c-1.1-0.6-2.5-1.1-4-1.4V3.8c0-1-0.8-1.8-1.8-1.8s-1.8,0.8-1.8,1.8v6.5
			c-1.6,0.2-3.1,0.7-4.3,1.4C7.7,12.7,0,15.9,0,21.1c0,2.3,1.6,4.2,4,5.7c-2.5,1.5-4,3.4-4,5.7c0,6.3,11.6,9.8,22.5,9.8
			S45,38.9,45,32.6c0-2.3-1.6-4.2-4-5.7C43.4,25.3,45,23.4,45,21.1z M22.5,27.2c-11.6,0-18.9-3.7-18.9-6.2c0-1.6,3-3.7,8.1-5
			c-0.5,0.8-0.2,1.9,0.6,2.4c0.3,0.2,0.6,0.2,0.9,0.2c0.6,0,1.2-0.3,1.5-0.9c0,0,2.1-3.4,6.1-4.1c0.3,0.6,0.9,1,1.6,1
			c0.7,0,1.3-0.4,1.6-1c3.8,0.8,5.8,3.9,5.9,4.1c0.5,0.8,1.6,1.1,2.4,0.6c0.8-0.5,1.1-1.6,0.6-2.4c0,0,0,0,0-0.1
			c5.3,1.3,8.4,3.4,8.4,5C41.4,23.6,34.1,27.2,22.5,27.2z M41.4,32.6c0,2.5-7.4,6.2-18.9,6.2S3.6,35.1,3.6,32.6
			c0-1.2,1.7-2.7,4.7-3.9c4.1,1.4,9.3,2.1,14.3,2.1s10.2-0.7,14.3-2.1C39.8,29.9,41.4,31.4,41.4,32.6z"/>
	</g>
</g>
</svg>
