<?xml version="1.0" encoding="utf-8"?>
<!-- Generator: Adobe Illustrator 25.3.1, SVG Export Plug-In . SVG Version: 6.00 Build 0)  -->
<svg version="1.1" id="Layer_1" xmlns="http://www.w3.org/2000/svg" xmlns:xlink="http://www.w3.org/1999/xlink" x="0px" y="0px"
	 viewBox="0 0 45 45" style="enable-background:new 0 0 45 45;" xml:space="preserve" fill="currentColor">
<style type="text/css">
	.st0{clip-path:url(#SVGID_2_);}
</style>
<g>
	<defs>
		<rect id="SVGID_1_" y="12" width="45" height="20.7"/>
	</defs>
	<clipPath id="SVGID_2_">
		<use xlink:href="#SVGID_1_"  style="overflow:visible;"/>
	</clipPath>
	<g class="st0">
		<path d="M22.5,32.7c10.9,0,22.5-3.4,22.5-9.8c0-5.2-7.9-8.5-16.7-9.4c-1.6-0.9-3.5-1.5-5.9-1.5c-2.4,0-4.3,0.7-5.9,1.5
			C7.7,14.5,0,17.8,0,22.9C0,29.3,11.6,32.7,22.5,32.7z M11.7,18c-0.5,0.8-0.2,1.9,0.6,2.4c0.8,0.5,1.9,0.2,2.4-0.6
			c0.1-0.2,2.6-4.2,7.6-4.2c5,0,7.5,4.1,7.6,4.2c0.3,0.6,0.9,0.9,1.5,0.9c0.3,0,0.6-0.1,0.9-0.2c0.8-0.5,1.1-1.6,0.6-2.4
			c0,0,0,0,0-0.1c5.3,1.3,8.4,3.4,8.4,5c0,2.5-7.4,6.2-18.9,6.2S3.6,25.5,3.6,22.9C3.6,21.3,6.6,19.3,11.7,18z"/>
		<path d="M22.5,18.6c0.5,0,0.9-0.4,0.9-0.9s-0.4-0.9-0.9-0.9c-0.5,0-0.9,0.4-0.9,0.9S22,18.6,22.5,18.6z"/>
	</g>
</g>
</svg>
