<?xml version="1.0" encoding="utf-8"?>
<!-- Generator: Adobe Illustrator 25.3.1, SVG Export Plug-In . SVG Version: 6.00 Build 0)  -->
<svg version="1.1" id="Layer_1" xmlns="http://www.w3.org/2000/svg" xmlns:xlink="http://www.w3.org/1999/xlink" x="0px" y="0px"
	 viewBox="0 0 45 45" style="enable-background:new 0 0 45 45;" xml:space="preserve" fill="currentColor">
<style type="text/css">
	.st0{clip-path:url(#SVGID_2_);}
</style>
<g>
	<defs>
		<rect id="SVGID_1_" x="1.1" y="0" width="42.7" height="45"/>
	</defs>
	<clipPath id="SVGID_2_">
		<use xlink:href="#SVGID_1_"  style="overflow:visible;"/>
	</clipPath>
	<g class="st0">
		<path d="M9.3,35.3v4c3.8,0.9,7.6,1,9.3,1.1v-3.1c-0.6-0.3-1-1-1-1.7v-6.4c0-0.8,0.4-1.4,1-1.7v-3.7c-1.7,0-5.5-0.2-9.3-1v2.8
			c0.6,0.3,1,1,1,1.7v6.4C10.3,34.3,9.9,35,9.3,35.3z"/>
		<path d="M20.7,37.3v3.1c1.7,0,5.5-0.2,9.3-1.1v-4.1c-0.6-0.3-1-1-1-1.7v-6.4c0-0.7,0.4-1.4,1-1.7v-2.7c-3.8,0.8-7.5,1-9.3,1v3.7
			c0.6,0.4,1,1,1,1.7v6.4C21.6,36.3,21.2,36.9,20.7,37.3z"/>
		<path d="M7.3,25.5v-3.3c-2.3-0.6-4.4-1.5-6.2-2.8v16c1.5,1.6,3.7,2.7,6.2,3.4v-3.5c-0.6-0.3-1-1-1-1.7v-6.4
			C6.3,26.5,6.7,25.8,7.3,25.5z"/>
		<path d="M19.7,42.4c0,0-0.2,0-0.4,0c-2.2,0-12.5-0.2-18.1-4.4v0c0,4.5,9.5,6.9,18.5,6.9c9,0,18.5-2.4,18.5-6.9
			C32,42.6,20.2,42.4,19.7,42.4z"/>
		<path d="M31.9,25.5c0.6,0.3,1,1,1,1.7v6.4c0,0.7-0.4,1.4-1,1.7v3.5c2.5-0.7,4.8-1.8,6.3-3.4v-16c-1.8,1.3-4,2.2-6.3,2.8V25.5z"/>
		<path d="M31.4,14.1c2.1,0.6,3.3,1.4,3.5,1.8c-0.4,1-5.4,3.3-15.2,3.3c-9.7,0-14.7-2.3-15.2-3.3c0.3-0.6,2.6-1.8,6.9-2.6
			c-0.4-1.2-0.2-2.5,0.6-3.5c-1.7,0.2-3.3,0.6-4.6,1c-4.1,1.2-6.1,2.9-6.1,5.1c0,0.1,0,0.2,0,0.2h0v0.7c4.9,5.2,18.4,5,18.5,5
			c0.2,0,13.7,0.2,18.5-5v-0.7h0c0-0.1,0-0.2,0-0.2c0-1.5-1-2.8-2.9-3.8l-1.5,0.8L31.4,14.1z"/>
		<path d="M23.5,9.4l12.1-6.2c0.8-0.4,1.1-1.4,0.7-2.2C36,0.3,35.5,0,34.8,0c-0.3,0-0.5,0.1-0.8,0.2L16.4,9.4L14,10.6
			c-0.8,0.4-1.1,1.4-0.7,2.2c0,0.1,0.1,0.1,0.1,0.1c0.3,0.5,0.8,0.8,1.4,0.8c0.3,0,0.5-0.1,0.8-0.2l1.7-0.9L23.5,9.4z"/>
		<path d="M32.9,11L43,5.8c0.8-0.4,1.1-1.4,0.7-2.2c-0.3-0.6-0.9-0.9-1.5-0.9c-0.3,0-0.5,0.1-0.8,0.2l-13.6,7l-5.4,2.8l-1.1,0.6
			c-0.8,0.4-1.1,1.4-0.7,2.2c0.3,0.6,0.9,0.9,1.5,0.9c0.3,0,0.5-0.1,0.8-0.2l5.5-2.8L32.9,11z"/>
	</g>
</g>
</svg>
